<?xml version="1.0" standalone="no"?><!DOCTYPE svg PUBLIC "-//W3C//DTD SVG 1.1//EN" "http://www.w3.org/Graphics/SVG/1.1/DTD/svg11.dtd"><svg t="1565256815884" class="icon" viewBox="0 0 1024 1024" version="1.1" xmlns="http://www.w3.org/2000/svg" p-id="2325" xmlns:xlink="http://www.w3.org/1999/xlink" width="200" height="200"><defs><style type="text/css"></style></defs><path d="M158.36672 1001.56416a25.09824 25.09824 0 0 1-10.58816-2.43712c-7.6032-4.03456-12.5952-11.94496-12.5952-20.42368V120.97536c0-48.92672 39.80288-88.7296 88.7296-88.7296h593.81248c24.04352 0 46.43328 9.3696 63.03744 26.37824 16.28672 16.68096 24.93952 38.73792 24.38144 62.1056l-0.00512 857.97888c0 8.66816-5.06368 16.87552-12.60032 20.42368a23.30112 23.30112 0 0 1-10.0096 2.24256 23.59808 23.59808 0 0 1-13.88032-4.5312l-115.87072-87.08096-85.17632 85.19168c-3.72736 4.13696-9.36448 6.50752-15.47776 6.50752-5.31968 0-9.61024-1.41312-13.50656-4.44416l-118.45632-89.19552-118.3232 89.09312a22.20544 22.20544 0 0 1-13.36832 4.55168c-5.94432 0-11.66848-2.45248-16.11776-6.90688l-84.79744-84.79744-115.968 87.15264a20.85376 20.85376 0 0 1-13.21984 4.64896z m132.57728-144.5888c5.9392 0 11.66336 2.45248 16.11776 6.90688l84.80256 84.80256 115.968-87.15776c4.03456-3.13344 8.32-4.54656 13.6448-4.54656s9.61024 1.408 13.51168 4.44416l116.10112 87.26016 84.80256-84.80256a21.5552 21.5552 0 0 1 15.90272-6.90176c4.92032 0 9.6256 1.57696 13.59872 4.5568l81.89952 61.43488h14.97088V120.97536c0-24.23808-18.98496-43.22816-43.22304-43.22816H225.22368c-24.23808 0-43.22304 18.98496-43.22304 43.22816v812.23168l95.55968-71.67488a22.24128 22.24128 0 0 1 13.38368-4.5568z m-1.05984-225.01376a16.16896 16.16896 0 0 1-16.14848-16.14336 16.16896 16.16896 0 0 1 16.14848-16.14848h329.89696a16.16896 16.16896 0 0 1 16.14848 16.14848 16.16896 16.16896 0 0 1-16.14848 16.14336H289.88416z m0-164.94592a16.16896 16.16896 0 0 1-16.14848-16.14848 16.16896 16.16896 0 0 1 16.14848-16.14848h461.85984a16.16896 16.16896 0 0 1 16.14336 16.14848 16.16896 16.16896 0 0 1-16.14336 16.14848H289.88416z m0-164.94592c-8.90368 0-16.14848-7.2448-16.14848-16.14848s7.2448-16.14848 16.14848-16.14848h461.85984c8.89856 0 16.14336 7.2448 16.14336 16.14848s-7.2448 16.14848-16.14336 16.14848H289.88416z" fill="" p-id="2326"></path></svg>